<svg id="レイヤー_1" data-name="レイヤー 1" xmlns="http://www.w3.org/2000/svg" viewBox="0 0 48 48"><defs><style>.cls-1{fill:#686877;}.cls-2{fill:#fff;}.cls-3{fill:#222;}</style></defs><rect class="cls-1" x="9.15" y="9.15" width="29.7" height="29.7" rx="2" transform="translate(24 -9.94) rotate(45)"/><path class="cls-2" d="M35.23,33.6l-6.17-6.16a.92.92,0,0,0,.53-.83v-.25a5,5,0,0,0-3.32-4.7c.85-.39,1.49-.88,1.94-1.05a1.56,1.56,0,0,0,1-1.47V17.27a5.25,5.25,0,1,0-10.49,0v1.87a1.56,1.56,0,0,0,1,1.47c.45.17,1.09.66,1.94,1.05a5,5,0,0,0-3.32,4.7v.25a.93.93,0,0,0,.28.66L12.33,33.6a.93.93,0,0,0,.1,1.41,6.57,6.57,0,0,0,7.35.19c.65,2.33,1.89,5.15,4.1,5.15S27.3,37.61,28,35.3A6.57,6.57,0,0,0,35.13,35,.93.93,0,0,0,35.23,33.6Z"/><path class="cls-3" d="M36.94,27.42a1,1,0,0,0-.68-.84l-5.93-2A6.12,6.12,0,0,0,29.55,23l4-1.4a1,1,0,0,0,.67-.94v-9.6a1,1,0,0,0-2,0v8.89l-2.68.93a2.58,2.58,0,0,0,.67-1.74V17.27a6.26,6.26,0,0,0-3.82-5.76v-.38a1,1,0,0,0-1-1,1,1,0,0,0-1,.91L24,11l-.44,0a1,1,0,0,0-1-.91,1,1,0,0,0-1,1v.38a6.26,6.26,0,0,0-3.82,5.76v1.86a2.62,2.62,0,0,0,.66,1.73l-2.64-.92V11.05a1,1,0,0,0-2,0v9.6a1,1,0,0,0,.67.94l4,1.39a6.12,6.12,0,0,0-.79,1.65l-5.9,1.95a1,1,0,0,0-.2,1.81l2.86,1.73L11.62,32.9a1.93,1.93,0,0,0,.22,2.92,7.51,7.51,0,0,0,4.4,1.42,7.6,7.6,0,0,0,3-.61c1.35,3.86,3.26,4.72,4.69,4.72s3.32-.85,4.67-4.65a7.52,7.52,0,0,0,7.16-.88,1.92,1.92,0,0,0,.79-1.4,2,2,0,0,0-.56-1.52l-2.61-2.61,3.13-1.9A1,1,0,0,0,36.94,27.42Zm-13.09.93a2.53,2.53,0,0,0-.07.38c0-.13-.05-.25-.07-.38Zm-4.47-2.07a4,4,0,0,1,4-3.93h1.17a4,4,0,0,1,4,4v.06Zm8.71-10a2,2,0,0,1-1.68-2v-.45A4.27,4.27,0,0,1,28.09,16.23Zm-3.68-3.16v1.17a4,4,0,0,0,3.82,4v.88a.56.56,0,0,1-.36.54A11.49,11.49,0,0,1,24,20.2a11.56,11.56,0,0,1-3.89-.53.56.56,0,0,1-.36-.54v-.88a4,4,0,0,0,3.82-4V13.07A3,3,0,0,1,24,13,3,3,0,0,1,24.41,13.07Zm-2.85.72v.45a2,2,0,0,1-1.68,2A4.31,4.31,0,0,1,21.56,13.79Zm-7.13,14,3-1a2.21,2.21,0,0,0,.05.25l-1.59,1.59Zm-1.34,6.45,6-6h1.18l1.4,0a5.79,5.79,0,0,1,.19,1.36,5.44,5.44,0,0,1-2.59,4.68h0A5.62,5.62,0,0,1,13.09,34.25Zm10.79,5.1c-1.45,0-2.4-2.11-2.93-3.74a6.55,6.55,0,0,0,.67-.59,7.52,7.52,0,0,0,2.16-4.37A7.46,7.46,0,0,0,25.94,35a7.34,7.34,0,0,0,.83.71C26.25,37.32,25.3,39.35,23.88,39.35Zm4.58-4.91h0a5.43,5.43,0,0,1-1.11-.83,5.55,5.55,0,0,1-1.63-3.92,6,6,0,0,1,.17-1.31l2.75.05,5.82,5.82A5.55,5.55,0,0,1,28.46,34.44Zm3.41-5.61-1.46-1.46a1.86,1.86,0,0,0,.15-.56l3,1Z"/></svg>