<?xml version="1.0" encoding="UTF-8" standalone="no"?>
<svg
   xmlns:dc="http://purl.org/dc/elements/1.1/"
   xmlns:cc="http://creativecommons.org/ns#"
   xmlns:rdf="http://www.w3.org/1999/02/22-rdf-syntax-ns#"
   xmlns:svg="http://www.w3.org/2000/svg"
   xmlns="http://www.w3.org/2000/svg"
   xmlns:sodipodi="http://sodipodi.sourceforge.net/DTD/sodipodi-0.dtd"
   xmlns:inkscape="http://www.inkscape.org/namespaces/inkscape"
   inkscape:export-ydpi="300"
   inkscape:export-xdpi="300"
   inkscape:export-filename="/Users/home/Pictures/Logos/zebrafish.png"
   width="297mm"
   height="210mm"
   viewBox="0 0 297 210"
   version="1.1"
   id="svg8"
   inkscape:version="0.92.4 (5da689c313, 2019-01-14)"
   sodipodi:docname="zebrafish.svg">
  <defs
     id="defs2" />
  <sodipodi:namedview
     id="base"
     pagecolor="#ffffff"
     bordercolor="#666666"
     borderopacity="1.0"
     inkscape:pageopacity="0.0"
     inkscape:pageshadow="2"
     inkscape:zoom="1.4"
     inkscape:cx="532.98417"
     inkscape:cy="488.54979"
     inkscape:document-units="mm"
     inkscape:current-layer="layer1"
     inkscape:document-rotation="0"
     showgrid="false"
     inkscape:window-width="1366"
     inkscape:window-height="705"
     inkscape:window-x="-8"
     inkscape:window-y="-8"
     inkscape:window-maximized="1" />
  <metadata
     id="metadata5">
    <rdf:RDF>
      <cc:Work
         rdf:about="">
        <dc:format>image/svg+xml</dc:format>
        <dc:type
           rdf:resource="http://purl.org/dc/dcmitype/StillImage" />
        <dc:title />
      </cc:Work>
    </rdf:RDF>
  </metadata>
  <g
     inkscape:label="Camada 1"
     inkscape:groupmode="layer"
     id="layer1">
    <circle
       r="2.2"
       cx="202.8237"
       cy="80.135063"
       id="path859"
       style="fill:#6b7ac9;stroke:#cc2557;stroke-width:0;stroke-miterlimit:4;stroke-dasharray:none" />
    <g
       id="g4882"
       transform="translate(52.514626,-12.988564)">
      <path
         sodipodi:nodetypes="ccccccscscscccssccsscscscscsscsscsssscscccsccccccccscsccccsccsscccccccscccccszzszzscccccsccccccscccsccccccccccccccsssssccccc"
         style="fill:#6b7ac9;fill-opacity:1;stroke:none;stroke-width:0.352778;stroke-opacity:1"
         d="m 85.441197,116.08699 c 1.483932,-0.64767 3.397367,-2.87922 5.349378,-6.23873 0.917565,-1.57918 2.006833,-3.09305 2.420603,-3.36416 0.649809,-0.42577 1.493477,-0.39919 6.192552,0.19507 2.99213,0.3784 6.36919,0.78917 7.50457,0.91282 2.04221,0.2224 2.05544,0.23111 1.23473,0.81231 -0.6632,0.46966 -1.55245,0.57258 -4.43331,0.51313 -1.98203,-0.0409 -3.69046,0.066 -3.796509,0.23761 -0.323723,0.5238 1.729099,1.73311 3.903279,2.29941 5.28379,1.37625 12.00065,-0.11226 16.32154,-3.61698 1.506,-1.22154 1.65619,-1.261 7.76111,-2.0395 10.52187,-1.34175 20.04813,-3.62707 23.56563,-5.65333 1.57149,-0.905247 4.16697,-3.886784 4.88947,-5.616731 0.24311,-0.582083 0.42087,-1.693333 0.39504,-2.469444 -0.0457,-1.372682 -0.11422,-1.447054 -2.51641,-2.730936 -2.59528,-1.38708 -6.67272,-2.752192 -10.23056,-3.425158 -1.16417,-0.220202 -2.86043,-0.634598 -3.76948,-0.920878 -0.90904,-0.286281 -2.33779,-0.671711 -3.175,-0.856513 -0.8372,-0.184801 -2.55406,-0.59386 -3.81524,-0.909021 -7.81582,-1.953122 -13.69183,-2.584948 -26.60009,-2.86021 L 96.09381,80.130803 94.295281,78.667209 C 89.899466,75.090013 81.694186,70.360172 79.891996,70.3646 c -1.786612,0.0044 -3.674269,0.838387 -5.080551,2.24467 -1.695436,1.695437 -2.241874,3.302003 -2.244668,6.599507 -0.0021,2.595013 0.375754,3.163096 2.975772,4.472718 l 1.390237,0.700259 -3.154126,0.486967 c -1.998602,0.308564 -6.126685,0.486966 -11.268019,0.486966 h -8.113889 l -3.351389,-1.106774 c -1.843264,-0.608725 -5.58141,-2.146684 -8.306993,-3.417685 -2.725582,-1.271002 -6.031364,-2.581136 -7.346188,-2.911408 -2.326008,-0.584275 -2.416087,-0.581571 -3.334674,0.100102 -1.297538,0.962888 -1.715375,2.818903 -1.194097,5.304118 0.563319,2.685645 2.251361,5.435042 5.100702,8.307771 2.826861,2.850065 2.944364,3.490683 1.275312,6.953043 -0.944223,1.958736 -1.103171,2.678806 -1.090213,4.938886 0.02656,4.6303 1.921499,9.17222 3.826774,9.17222 1.978992,0 3.600387,-1.57416 7.056036,-6.85051 1.208366,-1.84503 1.66666,-2.22443 3.938168,-3.26023 1.413862,-0.64471 3.504254,-1.83059 4.645311,-2.635282 3.101089,-2.186949 4.710528,-2.235928 8.002912,-0.243549 4.106443,2.485001 6.642146,4.659591 8.737978,7.493581 3.975071,5.37509 8.672438,9.39192 10.949012,9.36274 0.592603,-0.008 1.553711,-0.22167 2.135794,-0.47572 z M 101.3162,106.1127 c -1.746252,-0.28554 -3.571877,-0.51859 -4.056947,-0.51788 l -0.881944,0.001 0.881944,-0.36923 c 0.48507,-0.20308 1.239132,-0.50721 1.675695,-0.67585 1.892132,-0.73101 0.323099,-2.08574 -2.415547,-2.08574 -0.769712,0 -1.969389,-0.23813 -2.665949,-0.52917 -0.696563,-0.29104 -1.608639,-0.52916 -2.026842,-0.52916 -0.418201,0 -1.122518,-0.25367 -1.565149,-0.5637 -0.747137,-0.52331 -0.931248,-0.50928 -2.570455,0.19589 l -1.765674,0.75957 -3.240677,-0.9247 c -1.782374,-0.50858 -4.19318,-1.339479 -5.357347,-1.846443 -1.164166,-0.506964 -2.592916,-0.894479 -3.175,-0.861144 -0.582083,0.03333 -1.296458,-0.0946 -1.5875,-0.284309 -0.759308,-0.494931 1.728096,-0.450472 9.701389,0.173398 8.098244,0.633647 11.50249,1.071557 14.993056,1.928654 3.587507,0.880904 6.008257,1.129254 10.938537,1.122244 2.93709,-0.004 4.47238,-0.15726 5.1738,-0.51587 0.77151,-0.39445 1.47674,-0.43913 3.11405,-0.19729 2.51523,0.3715 6.1392,-0.1546 7.86947,-1.142442 1.45433,-0.8303 1.72762,-0.828597 3.65225,0.02276 1.47659,0.653162 1.64794,0.659341 3.30804,0.119298 0.96294,-0.31325 1.94924,-0.618247 2.19177,-0.677771 0.24254,-0.05952 0.44097,-0.351333 0.44097,-0.648464 0,-0.701342 -1.47049,-0.710077 -2.81134,-0.0167 -0.89508,0.462867 -1.18437,0.462867 -2.49627,0 -1.84352,-0.650429 -2.99842,-0.665715 -3.57608,-0.04733 -0.37319,0.399496 -0.52147,0.399581 -0.92052,5.29e-4 -0.73564,-0.735638 -2.1855,-0.971526 -3.39002,-0.551544 -1.493,0.520565 -2.75221,0.583808 -5.85577,0.294101 -1.45521,-0.135839 -6.26789,-0.383543 -10.69486,-0.550453 -4.426967,-0.16691 -7.874578,0.294846 -8.173408,-0.427852 -0.29883,-0.722698 0.245026,-1.184155 0.607646,-1.258841 1.099713,-0.2265 5.494442,0.246769 8.388812,0.29194 2.89437,0.04517 3.03041,0.08692 7.2706,0.194036 4.24019,0.107119 4.20728,0.114536 9.38044,-0.05535 3.9353,-0.129235 7.42591,0.299769 7.75641,0.394237 0.3305,0.09447 1.43087,-0.07471 2.44528,-0.37596 3.1819,-0.944923 3.61817,-0.817537 4.68784,1.368801 0.66982,1.369057 1.40433,2.225626 2.57133,2.998605 1.81628,1.20306 2.40148,1.3272 2.69167,0.57099 0.11987,-0.31238 -0.0802,-0.59882 -0.5146,-0.73669 -1.01786,-0.323049 -3.08177,-2.214362 -3.68101,-3.373163 -0.94181,-1.821248 -0.51136,-2.853045 1.85267,-4.440907 0.73009,-0.490381 1.18769,-0.606346 3.80979,-0.965474 0.58209,-0.07972 1.3101,-0.244424 1.61782,-0.366002 0.48086,-0.189991 0.53671,0.05348 0.39745,1.732744 -0.15717,1.895342 -0.11974,1.996072 1.2511,3.36692 1.19685,1.196851 1.63813,1.413125 2.88326,1.413125 1.63279,0 3.32682,-0.732314 3.87628,-1.675686 0.33046,-0.567372 0.36035,-0.56023 0.36899,0.08819 0.0156,1.173231 -1.29072,2.929662 -2.70814,3.641138 -4.23928,2.127925 -14.36498,4.422945 -25.14926,5.700165 -3.39548,0.40214 -7.84048,0.95532 -9.87777,1.22928 -4.1858,0.56287 -9.68191,0.41387 -14.64028,-0.3969 z m -17.625821,-1.88096 c -0.663176,-0.2394 -0.658054,-0.26841 0.121052,-0.68538 1.035121,-0.55398 2.37938,-0.22349 2.877612,0.70746 0.366275,0.68439 0.31659,0.70897 -0.959954,0.47483 -0.740424,-0.13581 -1.657844,-0.35942 -2.03871,-0.49691 z m 63.451651,-8.61022 c -1.37548,-1.375483 -1.59483,-3.008775 -0.59827,-4.454699 0.95692,-1.388405 1.58951,-1.730998 3.21833,-1.74297 2.15828,-0.01586 3.59209,1.416596 3.58099,3.577616 -0.0182,3.533197 -3.72268,5.098423 -6.20105,2.620053 z M 103.7606,91.851563 c -1.47298,-0.256327 -3.7311,-0.263893 -7.231946,-0.02423 -6.206324,0.424872 -13.027734,0.165006 -13.027734,-0.496301 0,-0.297464 0.751028,-0.517347 2.204861,-0.645532 3.405988,-0.300306 13.268336,-0.736964 15.434029,-0.683346 7.81529,0.193491 14.91612,0.53565 16.40417,0.790447 0.97014,0.166116 3.0493,0.222088 4.62036,0.124382 2.47068,-0.153654 2.88775,-0.09618 3.08795,0.42556 0.12731,0.331763 0.13738,0.755453 0.0224,0.941533 -0.27227,0.440538 -18.61631,0.07176 -21.51407,-0.432511 z"
         id="path4892"
         inkscape:connector-curvature="0" />
      <path
         sodipodi:nodetypes="ssccccccsccccsccscccscsssssssssssscsssccsccsccccccccsscscccccccsscscccccccscccscscsssccsscccccccsccsscsssscccsssccssssssscscscsssccssscsccssscssscsssccssccccccszzsccccccscscssccscsscsccsscsscssccscccccscccssccccccssccccscccccssssscccccccsssccsccsccssscssccsccccccccscssccsssccsscsscsccsssscscsssssccccccscsccssssscccccccsscsccscccsccccccsscssccccc"
         style="fill:#494949;fill-opacity:1;stroke-width:0.35277799"
         d="m 84.788929,116.16133 c 1.571032,-0.41331 3.369871,-2.38352 5.901747,-6.46398 2.568007,-4.13869 2.365727,-4.06058 8.245944,-3.18408 2.08488,0.31078 5.26976,0.66303 7.07752,0.7828 l 3.28683,0.21775 -0.73845,0.73899 c -0.6359,0.63636 -1.2883,0.76348 -4.69794,0.91538 l -3.959493,0.17639 1.234723,0.79807 c 4.65512,3.00886 13.25417,1.93093 18.85676,-2.36378 1.76883,-1.35592 1.82087,-1.37009 7.77796,-2.11838 7.65743,-0.96186 13.79417,-2.18406 18.69723,-3.72374 4.75484,-1.49315 5.62247,-2.014989 7.89968,-4.751333 1.78106,-2.14017 1.94742,-2.505816 2.28221,-5.016374 l 0.17343,-1.300533 -3.061,-1.566265 c -3.6459,-1.865556 -4.32625,-2.095054 -9.58836,-3.234399 -2.23078,-0.483006 -6.19909,-1.448796 -8.81847,-2.146199 -2.61937,-0.697404 -5.63562,-1.402249 -6.70277,-1.566323 -1.06716,-0.164074 -2.65466,-0.455531 -3.52778,-0.647683 -2.6334,-0.579543 -12.45722,-1.234417 -19.57917,-1.305185 -10.403359,-0.103375 -9.368217,0.06 -11.69901,-1.846412 -2.895783,-2.368525 -6.572084,-4.712713 -10.222371,-6.518276 -2.871072,-1.420134 -3.265188,-1.524643 -4.835532,-1.282248 -3.768535,0.581704 -5.86176,3.262184 -6.13832,7.860426 -0.177941,2.958558 0.01478,3.298975 2.690061,4.751469 1.872601,1.016696 1.884222,1.03299 0.881945,1.236579 -4.538998,0.92199 -9.959672,1.337862 -15.479551,1.187583 -5.685582,-0.15479 -6.189705,-0.227194 -9.701389,-1.393345 -2.037292,-0.676539 -5.450417,-2.06323 -7.584722,-3.081535 -4.675506,-2.230745 -8.356643,-3.545732 -9.925827,-3.545732 -2.183991,0 -3.187883,2.122652 -2.56946,5.432911 0.466799,2.498657 1.923334,4.889463 4.991251,8.192816 1.636745,1.762349 2.741535,3.254484 2.741535,3.702725 0,0.412941 -0.576364,2.027323 -1.280812,3.587516 -1.218833,2.699447 -1.271828,2.974727 -1.09515,5.688847 0.290414,4.46135 2.022634,8.32018 3.734905,8.32018 1.200309,0 3.033211,-1.58792 4.901099,-4.24604 3.052604,-4.34404 4.125451,-5.46078 5.699125,-5.93226 0.792357,-0.2374 2.504906,-1.16025 3.805665,-2.05078 3.137944,-2.148324 4.98983,-2.778273 6.602642,-2.245998 3.08525,1.018225 8.888095,5.402968 10.925574,8.255568 2.125853,2.97634 5.992336,7.08865 7.897022,8.39911 1.877276,1.29159 3.379975,1.68585 4.900719,1.28577 z M 80.58138,114.7917 c -1.665249,-1.10302 -7.475083,-6.98815 -7.185057,-7.27818 0.08819,-0.0882 1.69303,0.65357 3.566308,1.64835 2.805596,1.48987 3.66648,1.78975 4.88393,1.70125 1.370044,-0.0996 1.485801,-0.18792 1.585214,-1.20971 0.178552,-1.83516 -0.671502,-2.35162 -3.425874,-2.08144 -3.337599,0.32738 -6.572914,-1.05299 -10.263315,-4.37893 -1.141046,-1.02835 -1.167811,-1.09679 -0.352778,-0.90202 0.48507,0.11591 2.151945,0.83048 3.704167,1.58792 1.552222,0.75744 3.298472,1.47716 3.880556,1.59938 0.582083,0.12222 1.656859,0.44682 2.38839,0.72132 0.73153,0.27451 1.942454,0.4991 2.690943,0.4991 0.748489,0 1.967029,0.25326 2.707869,0.56281 1.143547,0.4778 1.552314,0.49503 2.7066,0.11408 0.747793,-0.24679 1.438381,-0.57615 1.53464,-0.7319 0.299028,-0.48384 -0.547794,-1.69263 -1.050604,-1.49968 -0.807347,0.3098 -8.274224,-1.28011 -10.241323,-2.18068 -1.022459,-0.4681 -2.581138,-0.98599 -3.463728,-1.15088 -0.882593,-0.16488 -2.167406,-0.64755 -2.855136,-1.07259 -0.687733,-0.42505 -1.935551,-0.889767 -2.772925,-1.032718 -0.987746,-0.168621 -1.522505,-0.442344 -1.522505,-0.779314 0,-0.403537 0.472176,-0.511582 2.116667,-0.48434 1.675564,0.02776 3.219422,0.458288 7.408334,2.065942 4.844785,1.85937 5.567221,2.04051 8.554614,2.14493 2.480511,0.0867 3.632063,0.29839 4.802251,0.88281 1.231784,0.61518 1.685911,0.6903 2.273142,0.37603 0.471766,-0.25249 1.024509,-0.2793 1.547749,-0.0751 2.493539,0.97321 3.828013,1.20289 4.694671,0.80801 1.8183,-0.82847 0.665159,-1.98408 -1.886271,-1.8903 -0.64928,0.0239 -1.740231,-0.19048 -2.424335,-0.47631 -0.684099,-0.28584 -1.478251,-0.51971 -1.764781,-0.51971 -0.286533,0 -1.080513,-0.26552 -1.764408,-0.59005 -1.05665,-0.50141 -1.409125,-0.52254 -2.346371,-0.14064 -0.606608,0.24718 -1.462944,0.53175 -1.902961,0.63238 -0.997472,0.22812 -5.82718,-1.06912 -8.992655,-2.415398 -1.311395,-0.557737 -2.898895,-1.019692 -3.527778,-1.026567 -0.628882,-0.0069 -1.540298,-0.239375 -2.025367,-0.516666 -0.853476,-0.487891 -0.82501,-0.504482 0.881944,-0.513988 0.970139,-0.0054 3.113264,0.146575 4.7625,0.33773 1.649236,0.191155 5.538612,0.509062 8.643056,0.706459 3.104445,0.197398 6.04132,0.446408 6.526389,0.553357 0.613975,0.13537 0.369203,-0.133609 -0.805586,-0.885262 L 90.180023,96.82149 75.463389,96.733544 c -14.683716,-0.08775 -20.277819,0.105112 -24.947193,0.860075 -2.812073,0.454667 -3.192741,0.663882 -3.510333,1.929277 -0.322696,1.285714 -0.102817,1.334994 1.401537,0.314116 1.169864,-0.793891 1.68159,-0.898461 4.362888,-0.891536 l 3.037575,0.0078 -0.881944,0.724752 c -0.48507,0.398612 -2.151945,1.330402 -3.704167,2.070652 -3.153523,1.50391 -3.561581,1.88465 -6.100583,5.69213 -2.132898,3.1985 -3.627162,4.54955 -5.031814,4.54955 -0.838698,0 -1.153732,-0.2541 -1.740154,-1.40359 -1.065417,-2.08839 -1.86345,-5.9155 -1.656705,-7.94502 0.09883,-0.97014 0.669777,-2.795761 1.268776,-4.056941 1.632864,-3.437963 1.511318,-4.251856 -1.006316,-6.738426 -3.856729,-3.80914 -5.64509,-7.05973 -5.657402,-10.283102 -0.0084,-2.189492 0.744604,-3.439583 2.071758,-3.439583 1.305828,0 5.397948,1.470471 9.47933,3.40632 2.276877,1.079951 5.806652,2.52774 7.843943,3.217308 3.622033,1.22596 3.851822,1.257131 10.363183,1.405772 4.940254,0.112776 7.717448,0.0038 10.759723,-0.422105 5.564815,-0.779099 6.115632,-0.907114 5.933394,-1.378986 -0.112639,-0.291665 0.58214,-0.374488 2.444556,-0.29141 2.184499,0.09744 2.601923,0.0267 2.601923,-0.440973 0,-0.461111 -0.486008,-0.557037 -2.822222,-0.557037 -1.615356,0 -2.822223,0.148417 -2.822223,0.34707 0,0.190889 -0.578432,0.07183 -1.285405,-0.264583 L 74.580111,82.53342 75.60093,82.310576 c 1.810033,-0.395129 4.858985,-0.311419 6.488878,0.178155 0.873126,0.262262 2.341563,0.587771 3.263195,0.723353 1.388812,0.204308 1.675695,0.152216 1.675695,-0.30427 0,-0.365823 -0.326161,-0.550783 -0.971261,-0.550783 -0.534194,0 -2.061824,-0.311872 -3.394735,-0.69305 -1.898343,-0.542878 -3.175829,-0.661821 -5.895626,-0.548924 l -3.472155,0.144126 -0.221164,-1.178908 c -0.296711,-1.581608 0.409769,-4.81619 1.366474,-6.256346 0.93363,-1.40541 3.456048,-2.755786 5.147646,-2.755786 1.400115,0 6.31021,2.409416 9.906889,4.861374 1.263036,0.86105 2.375807,1.646223 2.472821,1.744829 0.322382,0.327672 -5.100028,-2.450845 -5.997223,-3.07306 -0.485069,-0.336401 -1.755069,-0.89647 -2.822222,-1.244598 -1.067153,-0.348128 -2.27045,-0.847273 -2.673996,-1.109212 -0.403542,-0.261939 -0.840451,-0.369516 -0.970908,-0.23906 -0.491818,0.491818 0.986815,1.525979 3.244924,2.269514 1.287142,0.423821 2.737133,1.045841 3.222202,1.382265 0.48507,0.336424 2.208061,1.276497 3.828867,2.08905 1.620806,0.812553 2.889874,1.534415 2.820155,1.604137 -0.168617,0.168616 -4.427961,-0.793124 -5.767077,-1.30218 -0.582084,-0.221275 -2.702592,-1.34204 -4.712237,-2.49059 -2.359212,-1.348331 -3.775089,-1.967088 -3.99591,-1.746266 -0.220825,0.220823 1.073869,1.163613 3.653903,2.660759 3.264503,1.894331 4.718184,2.502827 7.94192,3.324406 3.837933,0.978109 3.950939,0.986801 4.126001,0.317363 0.176788,-0.676038 0.197602,-0.676491 1.169268,-0.02546 0.884633,0.592719 1.810244,0.669956 8.750386,0.730172 8.18113,0.07098 20.00692,0.870892 22.94885,1.552286 0.96008,0.222368 2.77747,0.63485 4.03865,0.916627 2.73841,0.611822 5.86827,1.396963 8.30764,2.084014 0.97968,0.275929 2.56719,0.659341 3.52778,0.852027 5.36221,1.075613 7.00198,1.572815 10.125,3.070037 1.89177,0.906944 3.43958,1.854107 3.43958,2.104808 0,0.2507 -0.32194,0.628119 -0.71543,0.838709 -0.77833,0.416548 -0.58262,1.220521 0.22195,0.911778 0.27142,-0.104152 0.49348,-0.02772 0.49348,0.169858 0,0.584355 -0.96559,2.277495 -1.59832,2.802615 -0.52586,0.436426 -0.57912,0.379046 -0.51505,-0.55486 0.22706,-3.309278 0.0326,-4.087372 -1.3729,-5.492849 -1.11971,-1.11971 -1.61856,-1.369367 -2.73403,-1.368289 -0.75043,7.41e-4 -1.88419,0.318225 -2.51947,0.705555 -0.7512,0.458004 -1.79965,0.709651 -2.99861,0.719722 -1.01396,0.0085 -2.43887,0.227934 -3.16648,0.487596 -1.49736,0.534365 -1.6678,0.223041 -0.61242,-1.118654 0.77929,-0.990704 0.53511,-1.344013 -0.22179,-1.304169 -0.7569,0.03984 -1.35904,0.607692 -1.65135,0.514564 -0.2923,-0.09313 -3.07813,-0.127375 -6.94765,-0.212465 -3.86951,-0.08509 -7.44802,-0.311554 -7.95222,-0.503253 -0.50421,-0.1917 -1.2636,-0.337802 -1.68753,-0.32467 l -0.77079,0.02388 0.78664,0.379638 c 0.43265,0.208801 0.9856,0.82912 1.22877,1.378487 0.39862,0.900524 0.599,0.992741 2.03559,0.9368 0.87639,-0.03413 2.91131,0.125131 4.52203,0.353906 3.16751,0.44989 6.25721,0.08661 6.97573,-0.820185 0.47389,-0.598078 1.91374,-0.268753 1.91374,0.437717 0,0.283337 -0.43731,0.952473 -0.97181,1.486969 -1.48008,1.48008 -4.33247,1.807022 -11.04786,1.266312 -3.33731,-0.268715 -3.40472,-0.258462 -5.79216,0.880958 -1.32855,0.634059 -2.82533,1.268982 -3.32616,1.410938 -0.53608,0.151944 0.79879,0.281521 3.24544,0.315039 2.28583,0.03132 5.38146,0.126881 6.87917,0.21237 1.49771,0.08549 3.19935,0.01666 3.78144,-0.152949 0.58208,-0.169612 1.81239,-0.39918 2.73403,-0.510153 1.35706,-0.163402 1.67569,-0.0991 1.67569,0.338168 0,0.741096 0.98367,2.624971 1.89335,3.626036 0.65887,0.725067 3.03009,2.170536 3.56065,2.170536 0.53004,0 0.0942,-1.04133 -0.51701,-1.23533 -1.04766,-0.332515 -2.77335,-1.883877 -3.36216,-3.022512 -0.82647,-1.598225 -0.6271,-2.834695 0.68442,-4.244545 1.3794,-1.482819 2.02421,-1.733579 5.24269,-2.038858 2.04459,-0.193933 2.35631,-0.149969 2.17485,0.306736 -0.91571,2.304709 -0.0687,4.635482 2.09201,5.756794 1.60462,0.832726 3.28396,0.59385 4.80137,-0.682966 l 1.06872,-0.899267 v 1.048643 c 0,3.929075 -10.1494,6.954365 -32.27917,9.621655 -9.00662,1.08556 -13.38741,1.20949 -18.34444,0.51895 -5.710463,-0.79549 -8.760044,-1.03164 -9.835755,-0.76165 -0.640122,0.16066 -1.320122,0.95595 -2.376473,2.77939 -4.216196,7.27788 -6.56534,8.70236 -10.286482,6.23758 z m 6.798243,-3.46929 c 0.48405,-0.13468 0.925432,-0.48031 0.980846,-0.76806 0.07749,-0.40239 -0.261292,-0.51638 -1.467316,-0.49371 -1.489368,0.028 -2.686678,0.59281 -2.686678,1.26741 0,0.35713 1.88141,0.35379 3.173148,-0.006 z m -45.603909,-2.43382 c 1.674142,-1.49841 6.094649,-6.95761 6.094649,-7.52672 0,-0.20898 -1.272561,1.21433 -2.827916,3.1629 -1.555355,1.94857 -3.336449,3.94085 -3.957991,4.42728 -0.621541,0.48642 -1.049069,0.96542 -0.950058,1.06443 0.09901,0.099 0.837603,-0.40854 1.641316,-1.12789 z m -0.485327,-2.70831 c 2.269289,-1.71374 3.031257,-2.56009 3.026854,-3.36209 -0.0018,-0.29104 -0.236061,-0.0996 -0.521024,0.42534 -0.284967,0.52498 -1.548613,1.68986 -2.808101,2.58861 -1.259487,0.89875 -2.289976,1.69953 -2.289976,1.77951 0,0.38413 0.70006,-0.002 2.592247,-1.43137 z m -1.862801,-2.50894 c 0.254684,-0.30687 1.345685,-1.00841 2.424448,-1.55896 1.800839,-0.91908 3.849059,-2.309819 3.019718,-2.05038 -2.051227,0.64166 -7.357047,4.1673 -6.271483,4.1673 0.200343,0 0.572636,-0.25108 0.827317,-0.55796 z m 71.413614,-2.83177 c 0.77611,-0.077 1.9727,-0.31254 2.65909,-0.5235 0.89772,-0.27592 1.82869,-0.27622 3.31714,-10e-4 1.39337,0.25758 2.48362,0.26932 3.33814,0.036 0.69793,-0.1906 1.94365,-0.513313 2.76827,-0.717146 0.82462,-0.203833 1.4993,-0.575787 1.4993,-0.826563 0,-0.805004 -1.61572,-1.399741 -3.06751,-1.129132 -2.96212,0.552128 -3.98047,0.590233 -6.97629,0.261043 -2.99813,-0.329445 -3.23674,-0.301979 -5.97631,0.687941 -1.56942,0.567098 -3.56388,1.119169 -4.43211,1.226825 -2.2586,0.280052 -3.04312,0.823252 -1.20864,0.836862 0.79534,0.006 2.62097,0.0733 4.05694,0.14971 1.43598,0.0764 3.24587,0.076 4.02198,-9.4e-4 z m 20.46111,-1.73829 c 0.58208,-0.266532 1.41552,-0.491763 1.85208,-0.500515 0.47877,-0.0096 0.79375,-0.235332 0.79375,-0.568851 0,-0.579135 -0.12498,-0.567374 -2.93124,0.27585 -1.01783,0.305837 -1.62284,0.302842 -2.49449,-0.01235 -1.44919,-0.524032 -3.27734,-0.537028 -3.59346,-0.02554 -0.15966,0.258346 -0.006,0.315774 0.45473,0.169633 0.39145,-0.12424 1.37579,0.08743 2.24904,0.483625 1.7994,0.81639 2.23007,0.837298 3.66959,0.178152 z M 42.469123,98.44761 c 1.782996,-0.603613 3.370496,-1.241835 3.527778,-1.41827 0.166151,-0.186387 0.02872,-0.228525 -0.327995,-0.100573 -0.337675,0.12112 -1.960633,0.63098 -3.606574,1.133023 -1.645942,0.502043 -3.085592,1.063238 -3.199226,1.247101 -0.272771,0.441352 -0.167604,0.416233 3.606017,-0.861281 z m 3.057282,-3.633613 c 0.398875,-0.398877 12.233713,-1.106054 13.419907,-0.801891 0.602185,0.154412 7.127385,0.378544 14.500441,0.498069 12.232633,0.198305 13.343823,0.168763 12.7,-0.337642 -0.388056,-0.30523 -1.08265,-0.882333 -1.543544,-1.282452 -0.71864,-0.623881 -1.589066,-0.776199 -6.111674,-1.069494 -3.678255,-0.238539 -5.60184,-0.227608 -6.358403,0.03613 -1.399607,0.487906 -9.215869,0.487112 -10.974106,-0.0011 -0.927693,-0.257601 -1.674551,-0.26274 -2.38125,-0.01638 -0.764716,0.266582 -1.028245,0.250196 -1.024234,-0.06369 0.0151,-1.181299 0.532564,-1.278969 6.710278,-1.266561 3.388388,0.0068 6.79571,0.01266 7.571821,0.01301 9.338632,0.0042 11.350933,-0.139681 11.790236,-0.84312 0.705415,-1.129548 -0.01185,-1.421017 -3.566904,-1.449407 -1.806445,-0.01443 -8.07236,-0.167792 -13.924259,-0.340814 -10.011679,-0.296013 -14.29463,-0.126217 -17.670601,0.70054 -1.555359,0.380912 -0.757322,0.823466 1.484895,0.823466 1.253257,0 3.457589,0.175345 4.898517,0.389657 2.598081,0.386417 2.617794,0.397419 2.370233,1.322916 -0.233398,0.872553 -0.385668,0.934714 -2.340875,0.955615 -1.212557,0.01296 -3.351181,0.415026 -5.089853,0.956897 -1.649236,0.513997 -3.752674,1.029602 -4.674306,1.145788 -0.921632,0.116186 -1.675695,0.36027 -1.675695,0.542409 0,0.381022 1.525327,0.452133 1.889376,0.08808 z M 43.284252,92.59372 c -1.261181,-0.173957 -2.928056,-0.413367 -3.704167,-0.532022 -0.983393,-0.150345 -1.299214,-0.103712 -1.041943,0.153849 0.203041,0.203271 1.869916,0.442681 3.704166,0.532021 3.072106,0.149632 3.154239,0.137504 1.041944,-0.153848 z m 1.848086,-2.488005 c -1.215669,-0.488444 -8.465453,-1.819738 -9.167308,-1.683412 -0.568184,0.110362 8.811221,2.092036 9.612277,2.030874 0.194028,-0.01481 -0.0062,-0.171172 -0.444969,-0.347462 z m -0.0842,-2.763061 c 0,-0.338601 -7.648875,-2.724183 -9.789584,-3.053241 -0.986339,-0.151614 -1.499306,-0.09916 -1.499306,0.153321 0,0.211083 0.542678,0.383787 1.205954,0.383787 0.940435,0 6.558446,1.539612 9.641963,2.642373 0.242535,0.08674 0.440973,0.02993 0.440973,-0.12624 z m 1.620396,-2.110135 c -0.111439,-0.18031 -0.640677,-0.437623 -1.176087,-0.571806 -0.535411,-0.134183 -2.604541,-0.940522 -4.598071,-1.791864 -4.103246,-1.752303 -7.135125,-2.729942 -7.135125,-2.300744 0,0.159316 0.495089,0.388684 1.100198,0.509705 0.605106,0.121021 3.105418,1.066546 5.55625,2.101164 4.69265,1.981005 6.593907,2.605412 6.252835,2.053545 z m 41.887363,-3.109122 c 0.150993,-0.150994 0.805611,-0.22878 1.454708,-0.172857 0.649093,0.05592 1.284947,-0.06785 1.413009,-0.27506 0.132253,-0.213992 -0.04285,-0.377259 -0.405345,-0.377947 -0.692831,-0.0013 -4.747275,-1.587799 -7.016948,-2.745701 -0.777043,-0.396417 -2.356831,-0.967278 -3.51064,-1.268579 -1.153809,-0.301302 -2.258205,-0.765145 -2.454215,-1.030764 -0.607519,-0.823269 -1.979789,-1.408949 -2.375066,-1.01367 -0.238732,0.238733 -0.01517,0.531406 0.680928,0.891365 0.570001,0.294759 1.231106,0.770571 1.469118,1.057359 0.238013,0.286788 1.258327,0.715728 2.267363,0.9532 1.817035,0.427631 5.39647,2.05161 4.591703,2.083241 -1.307461,0.05139 -5.892236,-1.204842 -7.808761,-2.139606 -2.305502,-1.124482 -3.316951,-1.09799 -1.901229,0.0498 1.125887,0.912806 3.95581,1.920323 8.241429,2.934137 2.007697,0.474944 3.971893,0.968404 4.364884,1.096577 0.392988,0.128173 0.838066,0.109502 0.989062,-0.04149 z m 13.818633,28.262763 -1.41111,-0.67663 2.21301,-0.11133 c 1.70759,-0.0859 2.34817,0.0238 2.80479,0.48045 0.48721,0.4872 1.06236,0.55857 3.25504,0.4039 2.4419,-0.17225 7.00808,-1.49687 6.59251,-1.91244 -0.097,-0.097 -1.02078,0.13781 -2.05281,0.52183 -2.33713,0.86964 -5.19692,1.27491 -6.687,0.94763 l -1.13482,-0.24925 1.33045,-0.45738 c 0.73175,-0.25157 1.67258,-0.7698 2.09075,-1.15164 0.57748,-0.52731 1.43098,-0.73472 3.54947,-0.86257 2.47166,-0.14916 2.68751,-0.11505 1.89611,0.2996 -0.97628,0.51153 -4.87782,1.21993 -5.30264,0.9628 -0.14552,-0.0881 -0.26458,0.008 -0.26458,0.21346 0,0.77756 4.23557,0.0341 6.52639,-1.14554 1.35153,-0.69597 4.76323,-1.39472 4.76182,-0.97526 -7.1e-4,0.22548 -2.87293,2.18014 -4.23266,2.88055 -0.48507,0.24987 -1.83444,0.73852 -2.99861,1.0859 -2.89271,0.86317 -8.89698,0.72367 -10.93611,-0.25408 z M 61.833488,98.027324 c -1.061343,-0.462131 -1.03522,-0.47351 1.118125,-0.486995 2.106221,-0.01319 2.204862,0.02472 2.204862,0.847316 0,0.473618 0.15875,0.959237 0.352777,1.079153 0.194028,0.119916 0.352778,0.369401 0.352778,0.554412 0,0.18501 -0.661906,-0.08146 -1.470903,-0.592158 -0.808997,-0.510697 -1.959935,-1.141474 -2.557639,-1.401728 z m 84.902852,-2.454538 c -1.1419,-1.306019 -1.09154,-3.635457 0.10946,-5.062758 2.50292,-2.974559 7.44096,-0.611832 6.72273,3.216659 -0.59104,3.150545 -4.71693,4.265382 -6.83219,1.846099 z"
         id="path4886"
         inkscape:connector-curvature="0" />
      <path
         sodipodi:nodetypes="csccccscccccsccccccccccscsccscscscsccscccscccscccccccssccccccssccssccccccscccccccccccccccccscccccccccsccccsscsccssscccccscsscsccccccscsccsccsscsccssccscsssccscccccscscccsscccccsccccscsscczssscsssccsccccssccsccscsccccsccccccscsccasaassccszzzzcscccscsccccccsccscccccsccsccccccsscsscscscccsssccscscccscccccsscssssccccssszcccscccscccsccscccscccccccccccsccssccssccccssscscccccsscssscsccscccscccscccccsccccccsssccccsscsccccccccccsssccssscscscczs"
         style="fill:#333333;fill-opacity:1;stroke-width:0.35277799"
         d="m 85.441197,115.81378 c 1.521351,-0.83771 3.141518,-2.72794 5.003684,-5.83773 1.070063,-1.78699 2.132267,-3.40403 2.360458,-3.59341 0.228187,-0.18938 1.204605,-0.41006 2.169816,-0.4904 l 1.754932,-0.14608 -1.927578,0.0353 c -2.170966,0.0398 -1.962034,-0.16598 -5.76349,5.67576 -2.722597,4.18385 -4.946241,5.28188 -7.760479,3.83211 -1.255276,-0.64667 -5.718902,-4.84235 -7.400453,-6.95622 l -1.085219,-1.36422 1.208885,0.58486 c 0.664891,0.32168 1.526389,0.76683 1.914444,0.98923 4.638383,2.65834 7.584723,3.12258 7.584723,1.19511 0,-0.42114 -0.250949,-1.12399 -0.557664,-1.56189 -0.522831,-0.74644 -0.721699,-0.78132 -3.183534,-0.55823 -2.524887,0.2288 -2.723893,0.1894 -5.174972,-1.02453 -1.402009,-0.69437 -3.395507,-1.98661 -4.429996,-2.87166 -1.034489,-0.88504 -1.986989,-1.60385 -2.116667,-1.59734 -0.129678,0.007 0.372167,0.50829 1.115212,1.11507 0.743045,0.60679 2.234769,2.30803 3.31494,3.78054 2.395174,3.26514 6.96056,7.80664 8.656895,8.6116 1.421314,0.67446 3.279528,0.75286 4.316063,0.18211 z m -45.795316,-3.68411 c -1.156966,-0.62718 -2.12822,-2.67524 -2.737619,-5.77274 -0.571606,-2.90543 -0.25098,-5.37933 1.05301,-8.124854 0.598999,-1.261181 1.073267,-2.689931 1.053931,-3.175 -0.0266,-0.666982 -0.111234,-0.559151 -0.347285,0.44241 -0.171669,0.728396 -0.750761,2.157146 -1.286866,3.175 -0.862951,1.638404 -0.972076,2.214764 -0.951544,5.025644 0.017,2.32789 0.227566,3.73975 0.789195,5.29167 0.734395,2.02932 2.108105,3.71989 2.998414,3.69004 0.231715,-0.008 -0.02533,-0.25624 -0.571236,-0.55217 z m 2.949385,-0.75686 c 0.59732,-0.5337 2.160531,-2.55776 3.473806,-4.49791 2.327096,-3.4379 2.447823,-3.55183 4.750746,-4.48322 2.238619,-0.90538 5.679095,-3.056981 5.374792,-3.361282 -0.07768,-0.07769 -0.929076,0.424754 -1.891979,1.116532 -0.962904,0.69178 -2.444295,1.50248 -3.291978,1.80156 -2.40344,0.84798 -2.982662,1.36789 -5.203328,4.6705 -1.141811,1.69811 -2.73269,3.68074 -3.535285,4.40584 -0.802597,0.7251 -1.302561,1.31836 -1.111038,1.31836 0.191527,0 0.836944,-0.43667 1.434264,-0.97038 z m 66.217464,0.37442 c -0.33955,-0.0887 -0.89518,-0.0887 -1.23473,0 -0.33954,0.0887 -0.0617,0.16133 0.61736,0.16133 0.6791,0 0.95691,-0.0726 0.61737,-0.16133 z m 5.32643,-0.98047 c 2.24665,-0.72736 3.89071,-1.64476 6.93259,-3.86845 0.42173,-0.30829 3.04717,-0.81037 6.52639,-1.24807 9.77432,-1.22966 19.76458,-3.51453 23.35955,-5.34256 1.37698,-0.700193 4.69115,-4.400748 5.24435,-5.855774 0.32875,-0.864665 0.41714,-3.468151 0.0902,-2.658024 -0.0979,0.242534 -0.40283,0.440972 -0.6777,0.440972 -0.27487,0 -0.49977,0.255109 -0.49977,0.56691 0,0.376379 0.19104,0.493603 0.56841,0.34879 0.464,-0.178055 0.52594,-0.04889 0.33718,0.703202 -0.12718,0.506726 -0.58141,1.396733 -1.00939,1.977793 l -0.77814,1.056472 c -0.90531,0.956735 -1.06623,1.05195 -1.87645,1.79737 -1.70577,1.647889 -6.62363,3.354999 -13.84934,4.807459 -5.07991,1.02112 -8.57836,1.51838 -21.4812,3.05331 -5.55076,0.66032 -11.88228,0.53942 -17.048788,-0.32555 -1.512619,-0.25324 -2.814637,-0.3562 -2.893377,-0.2288 -0.166924,0.27009 5.060035,1.00917 9.259565,1.30929 1.60073,0.1144 2.91042,0.3064 2.91042,0.42667 0,0.12026 -0.43656,0.48933 -0.97014,0.82015 -0.53358,0.33082 -0.78388,0.60572 -0.55624,0.61088 0.22766,0.005 0.86266,-0.36361 1.41112,-0.81949 0.80346,-0.66783 1.57272,-0.87208 3.95936,-1.05128 3.20223,-0.24043 3.36574,-0.15929 1.24467,0.61769 -0.76154,0.27896 -1.13044,0.51838 -0.81979,0.53205 0.31065,0.0137 1.26315,-0.34575 2.11667,-0.79872 1.30707,-0.69367 5.25602,-1.54276 5.25602,-1.13012 0,0.0713 -0.79864,0.71598 -1.77476,1.43251 -1.99064,1.46127 -4.4347,2.48592 -7.57386,3.17528 -1.34634,0.29566 -1.7315,0.46928 -1.05833,0.47708 0.58208,0.007 2.22492,-0.36542 3.65074,-0.82704 z m -8.76602,0.48794 c -0.87312,-0.16809 -2.30187,-0.58726 -3.175,-0.93148 l -1.5875,-0.62587 3.35139,-0.19705 3.35139,-0.19706 -3.70417,-0.0558 -3.704163,-0.0558 0.828813,0.69057 c 0.95339,0.79436 3.98825,1.77358 5.32063,1.71675 0.56204,-0.024 0.30329,-0.15471 -0.68139,-0.34428 z m -18.724613,0.0654 c 2.227054,-0.30206 2.329582,-1.09354 0.14165,-1.09354 -1.326366,0 -1.806966,0.15779 -2.149055,0.70556 -0.353032,0.56529 -0.352368,0.69502 0.0032,0.65257 0.244179,-0.0291 1.146009,-0.14821 2.004067,-0.26459 z m 23.634103,-0.86941 c -0.0808,-0.0707 -1.17886,-0.21226 -2.44004,-0.31446 -1.34647,-0.10911 -2.0018,-0.0662 -1.5875,0.10385 0.68257,0.28023 4.32471,0.47069 4.02754,0.21061 z m 3.66742,-0.99428 c 1.12779,-0.39295 1.98156,-0.78342 1.89727,-0.86771 -0.0843,-0.0843 -1.32452,0.24569 -2.75607,0.73328 -1.43156,0.4876 -2.28533,0.87806 -1.89727,0.86771 0.38805,-0.0104 1.62829,-0.34033 2.75607,-0.73328 z m -70.78884,-2.17785 c 2.311636,-2.48302 4.951208,-5.87144 4.573834,-5.87144 -0.09854,0 -1.215418,1.32707 -2.481954,2.94905 -1.266535,1.62198 -2.942484,3.52698 -3.724331,4.23334 -0.781847,0.70635 -1.278015,1.28427 -1.102593,1.28427 0.175419,0 1.40619,-1.16785 2.735044,-2.59522 z m 68.73832,1.53689 c 0.94404,-0.24022 0.96309,-0.2693 0.17639,-0.2693 -0.48507,0 -1.35819,0.12118 -1.94028,0.2693 -0.94403,0.24022 -0.96308,0.2693 -0.17639,0.2693 0.48507,0 1.3582,-0.12119 1.94028,-0.2693 z m -24.127378,-1.71104 c 1.066634,-0.49919 1.228118,-0.71591 0.997659,-1.3389 -0.217607,-0.58824 -0.483076,-0.70408 -1.272621,-0.55527 -0.548714,0.10341 -1.2051,0.48064 -1.458634,0.83828 -0.805649,1.13646 -2.537636,0.60033 -2.537636,-0.7855 0,-0.43533 -0.529502,-0.69415 -2.028473,-0.99152 -1.115659,-0.22132 -2.862308,-0.79049 -3.881441,-1.2648 -1.019133,-0.47431 -2.447883,-0.96662 -3.175,-1.09402 -0.727117,-0.1274 -1.976614,-0.60568 -2.776657,-1.06284 -0.800044,-0.45717 -2.087838,-0.932463 -2.861769,-1.056219 -1.75998,-0.281432 -2.378375,-0.650877 -2.030808,-1.213254 0.579551,-0.937732 4.68606,-0.165667 10.17427,1.912863 4.742509,1.79612 5.543674,1.99466 8.466667,2.09817 2.450053,0.0868 3.586315,0.29787 4.71254,0.87553 1.245295,0.63872 1.629932,0.69471 2.390817,0.34803 0.693138,-0.31581 1.004253,-0.31567 1.320536,7.1e-4 0.22757,0.22757 0.771419,0.41376 1.208553,0.41376 0.437134,0 1.163945,0.1682 1.615137,0.37377 0.89324,0.4069 2.740628,-0.0686 2.740628,-0.7055 0,-0.60275 -1.513565,-1.19112 -2.92215,-1.13593 -0.744086,0.0292 -1.811867,-0.18434 -2.372847,-0.47443 -0.56098,-0.2901 -1.361045,-0.52745 -1.777919,-0.52745 -0.416874,0 -1.313035,-0.2634 -1.991466,-0.58534 -1.149068,-0.54526 -1.301348,-0.54526 -2.224412,0 -0.544996,0.32194 -1.479945,0.58534 -2.077667,0.58534 -1.226633,0 -6.192774,-1.37444 -8.329373,-2.305259 -0.776111,-0.338116 -1.728611,-0.748609 -2.116667,-0.912207 -0.388055,-0.163597 -1.215993,-0.276341 -1.839863,-0.250541 -0.623866,0.0258 -1.338241,-0.11876 -1.5875,-0.321245 -0.249255,-0.202485 -0.770692,-0.446197 -1.158748,-0.541582 -1.290814,-0.317287 4.180572,-0.242209 7.761111,0.106497 1.940278,0.188962 5.115278,0.428316 7.055556,0.531898 l 3.527778,0.18833 -1.081722,-0.711 C 87.216569,96.872036 86.475535,96.82659 74.481697,96.70097 66.882641,96.62138 60.81596,96.71354 59.335641,96.931048 c -1.358194,0.199567 -3.342569,0.328372 -4.409722,0.286233 -1.955599,-0.07722 -6.08172,0.504889 -7.047978,0.994323 -0.286876,0.14531 -0.623186,0.760927 -0.747353,1.36804 l -0.22576,1.103846 1.008584,-0.718178 c 1.120162,-0.797627 1.939266,-0.951624 6.306951,-1.185749 3.126518,-0.167595 6.873932,-1.005174 5.980804,-1.336761 -0.28201,-0.104702 0.780249,-0.201085 2.360581,-0.214186 2.621908,-0.02173 2.858484,0.03295 2.703661,0.625002 -0.09332,0.35685 0.08555,1.142371 0.397496,1.7456 l 0.567168,1.096782 -2.178992,-1.408352 c -1.198446,-0.774593 -2.432195,-1.398287 -2.741662,-1.385989 -0.391404,0.01555 -0.33643,0.113789 0.180611,0.322739 0.408803,0.165208 1.916928,1.063002 3.351389,1.995102 1.434462,0.93209 2.925611,1.7196 3.313667,1.75001 1.224671,0.096 4.671921,1.46725 6.060384,2.41073 0.734441,0.49906 1.670515,0.90739 2.080168,0.90739 0.409656,0 1.652542,0.3123 2.761971,0.694 1.10943,0.3817 2.523346,0.6831 3.142033,0.66979 0.618688,-0.0133 1.819536,0.23001 2.668549,0.54072 0.849013,0.31072 1.563388,0.55208 1.5875,0.53638 0.02413,-0.0157 0.616518,-0.29658 1.316461,-0.62415 z m -47.133734,-0.45146 c 1.929194,-1.4435 3.704982,-3.19006 3.700255,-3.63934 -0.0021,-0.20448 -0.381988,0.10769 -0.844085,0.69371 -0.462093,0.58601 -1.65065,1.61789 -2.641236,2.29305 -0.99059,0.67517 -1.801375,1.34664 -1.801753,1.49216 -0.0011,0.35367 -0.02487,0.36635 1.586819,-0.83958 z m -0.881944,-3.34727 c 0.679097,-0.48899 2.147535,-1.35661 3.263194,-1.92806 1.11566,-0.57145 2.028473,-1.12719 2.028473,-1.23499 0,-0.333427 -5.636596,2.78775 -6.241447,3.45611 -0.763828,0.84402 -0.528581,0.77143 0.94978,-0.29306 z M 122.18426,86.155703 c 0.54047,0.124499 1.35693,0.397905 1.35693,0.397905 2.15644,0.506347 10.72772,0.387159 12.17083,0.503066 1.6952,0.136153 3.88056,1.080578 3.88056,1.67702 0,0.579462 -1.07802,2.550524 -1.86665,3.413005 -0.39918,0.436563 -1.10406,0.79375 -1.56641,0.79375 -0.46234,0 -1.56268,0.181817 -2.4452,0.404038 -1.2254,0.30856 -2.29982,0.300603 -4.54666,-0.03367 l -2.94209,-0.437709 -47.53702,-0.700587 c -2.259089,-0.538873 -2.319153,-0.593494 -10.357075,0.01472 -3.713551,0.280997 -5.44092,0.280938 -6.303638,-2.15e-4 v -3e-6 c -0.653599,-0.213004 -1.883911,-0.308878 -4.656187,-0.318578 -2.772277,-0.0097 -3.806452,0.168629 -6.391787,1.011524 -1.807238,0.589189 -4.119326,1.176204 -5.137972,1.304479 -1.018646,0.128274 -1.852084,0.37708 -1.852084,0.5529 0,0.394869 0.627899,0.376955 1.68656,-0.04812 v 5.4e-5 c 0.76465,-0.30702 2.337919,-0.451821 9.27667,-0.853809 1.664151,-0.09641 3.516199,-0.03463 4.115661,0.137296 0.833723,0.239109 19.173751,0.619281 41.539842,1.116398 l 26.34465,0.731672 c 2.1882,0.129005 4.22067,0.109216 4.51661,-0.04397 0.29593,-0.153191 1.4314,-0.386794 2.52327,-0.519118 1.95945,-0.237467 1.98842,-0.227742 2.23236,0.749529 0.42607,1.706934 1.65396,3.330865 3.31504,4.3843 1.82136,1.15507 2.16877,1.23298 2.16877,0.48638 l 1e-5,-1e-5 c 0,-0.29104 -0.23766,-0.52917 -0.52815,-0.52917 -0.79995,0 -3.39727,-2.495372 -3.9355,-3.781028 -0.70256,-1.678206 -0.60816,-2.057563 0.87724,-3.525476 1.52662,-1.508638 2.84333,-2.049595 5.82442,-2.392903 0.54771,-0.0477 0.31366,-0.278281 -0.14084,-0.337186 -1.4445,0.137625 -2.91777,0.401272 -3.27394,0.585883 -1.0124,0.524756 -1.02422,0.148385 -0.0408,-1.300723 0.84396,-1.243649 0.85735,-1.323355 0.19322,-1.149681 -0.39825,0.104145 -0.90073,-0.03886 -1.13704,-0.323599 -1.07711,-1.29784 -3.60629,-1.9832 -8.42195,-2.282189 -2.61937,-0.162629 -6.99797,-0.726262 -7.85599,-0.707616 -2.67154,-0.06542 -4.34706,-0.334875 -6.47289,-0.445987 -2.1171,-0.09449 -4.89878,0.180058 -7.34921,0.229581 -2.40978,0.0487 -2.41071,5.3e-4 -7.23051,0.06642 -2.18683,0.0299 -4.374003,0.0574 -6.560981,0.04124 -2.048348,-0.01514 -4.09815,-0.234684 -6.143848,-0.129434 -1.625373,0.08362 -3.46847,0.38592 -4.845157,0.603272 -1.864994,0.294445 -3.382363,0.49619 -3.846094,0.557369 -3.709845,0.489432 -3.294934,0.533593 -3.914073,0.533626 -0.619139,3.3e-5 -1.223821,0.158811 -1.343738,0.352838 -0.288995,0.467603 2.499138,0.379848 5.566234,-0.175194 0,0 -0.657588,0.118997 0,-4e-6 0.657589,-0.119002 -1.913504,-0.04725 1.120538,-0.287574 3.034042,-0.240327 37.863689,-0.595289 38.091439,-0.560951 0.22775,0.03434 1.30216,0.11174 1.84263,0.236239 z m 4.44374,0.191528 c 0.33955,-0.08873 0.89518,-0.08873 1.23473,0 0.33955,0.08873 0.0617,0.161333 -0.61736,0.161333 -0.6791,0 -0.95691,-0.0726 -0.61737,-0.161333 z m -6.08541,13.806059 c 0.87312,-0.249329 1.92525,-0.466098 2.33805,-0.481713 0.41281,-0.01561 0.93937,-0.255894 1.17014,-0.533955 0.65539,-0.789696 -1.04778,-1.763286 -2.53739,-1.45046 -0.63095,0.132504 -2.73892,0.359845 -4.68437,0.505203 -2.64183,0.197389 -3.96548,0.478193 -5.22926,1.109353 -0.93064,0.464787 -1.76922,0.969882 -1.8635,1.122432 -0.2837,0.45903 2.52889,0.31208 3.73526,-0.19516 1.0315,-0.433719 3.07308,-0.343332 4.9544,0.21935 0.29104,0.087 1.24354,-0.0457 2.11667,-0.29505 z m 10.39485,-0.93373 c 0.38141,-0.221194 1.16329,-0.498259 1.73752,-0.615701 0.57422,-0.117441 1.10388,-0.393036 1.17701,-0.612432 0.0977,-0.293171 -0.22256,-0.300403 -1.20835,-0.02729 -1.57142,0.435367 -3.58235,0.471088 -5.6171,0.09978 -0.95058,-0.173465 -1.53677,-0.130625 -1.69402,0.1238 -0.14891,0.240936 -0.0418,0.312824 0.28134,0.188826 0.28698,-0.110125 1.2679,0.129818 2.17983,0.533207 1.89194,0.836896 2.1851,0.865786 3.14377,0.309808 z M 41.167585,98.761242 c 1.261181,-0.454771 2.122897,-0.839251 1.914927,-0.8544 -0.546058,-0.03978 -3.794471,1.069134 -4.190344,1.430457 -0.437113,0.39896 -0.408273,0.39166 2.275417,-0.576057 z m 4.233333,-1.411111 c 1.152155,-0.658631 0.749004,-0.666021 -0.753247,-0.01381 -0.652868,0.283447 -0.948905,0.515946 -0.657864,0.516666 0.291042,7.05e-4 0.926042,-0.225567 1.411111,-0.502858 z M 151.51648,94.280965 c 0.57861,-0.578609 0.53282,-1.868851 -0.0845,-2.381184 -0.27931,-0.231805 -0.954,-0.370306 -1.49931,-0.307779 -1.80816,0.207329 -1.44201,3.112296 0.39228,3.112296 0.42251,0 0.95869,-0.1905 1.19153,-0.423333 z M 38.69814,93.751436 c 0,-0.09804 -1.094853,-1.26231 -2.433009,-2.587259 -3.162911,-3.131695 -4.975324,-6.585645 -4.975324,-9.481559 0,-4.647299 2.10838,-4.67815 11.660219,-0.170619 2.629578,1.240904 4.931453,2.254731 5.115278,2.252949 0.468546,-0.0045 -6.980569,-3.579774 -9.852254,-4.728629 -1.306548,-0.522702 -3.134198,-1.040219 -4.061446,-1.150037 -1.534432,-0.181731 -1.754572,-0.112368 -2.45024,0.772026 -0.876275,1.114003 -1.041043,3.845159 -0.352985,5.850987 0.731812,2.133372 3.063547,5.459371 5.23271,7.463966 1.164379,1.076039 2.117051,1.876218 2.117051,1.778175 z m 4.056945,-1.169027 c -1.552222,-0.177514 -3.219097,-0.409889 -3.704167,-0.516389 -0.692693,-0.152086 -0.758176,-0.118008 -0.305156,0.15881 0.317232,0.193846 1.984107,0.426221 3.704167,0.516389 l 3.127378,0.163943 z M 155.99676,90.599607 c -0.86266,-0.691998 -5.31347,-2.789849 -6.52639,-3.076157 -0.48507,-0.114499 -0.24695,0.0567 0.52916,0.380446 0.77611,0.323744 2.60174,1.190065 4.05695,1.925158 1.45521,0.735093 2.32833,1.081842 1.94028,0.770553 z m -27.74717,-0.510078 c 1.28571,0.278892 4.75231,1.043865 5.52216,0.724093 0.38806,-0.161187 1.22648,-0.304225 1.86316,-0.317862 0.68547,-0.01468 1.24042,-0.240616 1.36066,-0.553962 0.11575,-0.301635 0.64189,-0.529166 1.22365,-0.529166 0.56132,0 1.02059,-0.14333 1.02059,-0.318512 0,-0.231132 -12.68859,-0.66632 -12.95059,-0.56213 -0.13101,0.0521 -7.14957,0.388863 -15.1801,-0.08138 -4.73646,-0.277349 -18.429519,-0.34116 -21.412541,-0.203309 -8.56298,0.395713 -14.838715,-0.08669 -14.838715,-0.08669 -2.522322,-0.01474 -8.475487,-0.05968 -13.229167,-0.142218 -6.33288,-0.109955 -9.330327,-0.02223 -11.214348,0.328221 -3.025962,0.562861 -2.747937,1.052572 0.602118,1.060565 3.474304,0.0083 6.821195,0.674388 11.681739,1.076038 0,0 7.312627,-0.763905 13.994337,-0.620001 3.641852,0.07843 10.123757,-0.245145 12.053808,-0.01776 4.438495,0.522915 9.16381,0.07029 13.407329,0.0808 8.48705,0.02101 24.81019,-0.115622 26.09591,0.163266 z M 43.284252,89.736308 c -1.455209,-0.361399 -3.360209,-0.7387 -4.233334,-0.838445 -0.873125,-0.09974 0.07937,0.202936 2.116667,0.672626 2.037292,0.469689 3.942292,0.84699 4.233333,0.838445 0.291042,-0.0085 -0.661458,-0.311226 -2.116666,-0.672626 z m -6.444908,-1.273704 c -0.343243,-0.08944 -0.819493,-0.08356 -1.058334,0.01307 -0.238841,0.09663 0.04199,0.169816 0.624075,0.162626 0.582083,-0.0072 0.777501,-0.08625 0.434259,-0.175698 z M 147.88287,86.952406 c -0.67376,-0.298326 -2.92287,-0.500077 -2.61644,-0.2347 0.0808,0.07001 0.86137,0.221755 1.73449,0.337202 1.06002,0.14016 1.35307,0.106102 0.88195,-0.102502 z M 40.991196,85.884854 c -2.328333,-0.758062 -4.788958,-1.36712 -5.468056,-1.353462 -1.047425,0.02106 -0.967158,0.07032 0.529167,0.324672 0.970139,0.164913 3.182729,0.781354 4.916872,1.369871 1.734139,0.588517 3.401014,1.062646 3.704167,1.053622 0.303149,-0.009 -1.353817,-0.636641 -3.68215,-1.394703 z m 103.540284,0.348181 c -0.29104,-0.185557 -0.99219,-0.339808 -1.5581,-0.342779 -1.36458,-0.0072 -1.06768,0.196504 0.67615,0.463834 0.96096,0.147314 1.24231,0.108697 0.88195,-0.121055 z M 67.978697,86.021633 c -1.799435,-0.225012 -13.895508,-0.314406 -12.876389,-0.09516 0.582083,0.125225 3.915833,0.222679 7.408333,0.216563 3.4925,-0.0061 5.953125,-0.06075 5.468056,-0.121403 z m 72.495833,-0.676118 c -1.82816,-0.658618 -2.46409,-0.642213 -0.92963,0.02398 0.65286,0.283448 1.44661,0.508391 1.76389,0.499874 0.31727,-0.0085 -0.0581,-0.244252 -0.83426,-0.523854 z M 70.885,85.635348 c -0.438824,-0.08438 -1.073824,-0.08118 -1.411111,0.0071 -0.337287,0.0883 0.02177,0.157338 0.797864,0.153422 0.776111,-0.0039 1.052071,-0.07616 0.613247,-0.160541 z m 3.267308,-0.279764 c 0.194028,-0.06643 1.106841,-0.222379 2.028473,-0.346543 0.921631,-0.124163 1.675694,-0.37223 1.675694,-0.551258 0,-0.179029 -0.912813,-0.796666 -2.028472,-1.372527 l -2.028473,-1.047021 3.473482,-0.01697 c 1.949761,-0.0095 4.271074,0.201208 5.291667,0.480387 3.183746,0.870897 4.111241,0.955671 4.111241,0.37577 0,-0.293866 -0.323318,-0.520348 -0.74283,-0.520348 -0.408556,0 -1.718243,-0.264306 -2.910417,-0.587347 -2.699607,-0.731509 -10.104399,-0.886481 -10.104815,-0.211481 -1.52e-4,0.239742 0.968293,0.924824 2.152092,1.522404 1.183803,0.597581 2.057386,1.181489 1.941301,1.297574 -0.116085,0.116084 -1.362459,0.403204 -2.769725,0.638042 -1.407263,0.234839 -2.082412,0.434433 -1.500329,0.443543 0.582083,0.0091 1.217083,-0.03779 1.411111,-0.104227 z M 51.594007,84.623873 c -1.347481,-0.470627 -2.617481,-0.843869 -2.822223,-0.829427 -0.204738,0.01444 0.730229,0.411318 2.077713,0.881945 1.347481,0.470627 2.617481,0.843869 2.822223,0.829426 0.204738,-0.01444 -0.730229,-0.411317 -2.077713,-0.881944 z m -5.311144,0.576507 c -2.106115,-1.001229 -10.16846,-4.252828 -10.521961,-4.24358 -0.496422,0.01299 9.082218,4.051912 10.345572,4.362308 0.74766,0.183694 0.774517,0.165617 0.176389,-0.118728 z m 88.900007,-1.268544 c -0.58209,-0.266532 -1.45521,-0.481049 -1.94028,-0.476705 -0.53416,0.0048 -0.18637,0.201043 0.88194,0.497687 2.18187,0.605848 2.4171,0.601184 1.05834,-0.02098 z M 82.795364,83.591799 c 0,-0.426938 -0.553565,-0.529167 -2.865416,-0.529167 -2.50704,0 -2.810493,0.06618 -2.426251,0.529167 0.312473,0.376505 1.139123,0.529166 2.865417,0.529166 1.921481,0 2.42625,-0.11009 2.42625,-0.529166 z m 48.715456,-0.53043 c -0.46741,-0.203647 -1.81679,-0.523087 -2.99862,-0.709867 -1.18183,-0.186779 -2.62503,-0.420049 -3.20711,-0.518378 l -1.05834,-0.17878 1.05834,0.368104 c 0.58208,0.202458 1.93146,0.503948 2.99861,0.669978 1.06715,0.166031 2.41653,0.400275 2.99861,0.520543 0.97608,0.201674 0.99229,0.189892 0.20851,-0.1516 z M 88.318047,81.843061 c -0.159808,-0.416461 -0.02872,-0.449938 0.690782,-0.176389 0.48841,0.185695 1.195186,0.337627 1.570612,0.337627 1.326491,0 0.649672,-0.537497 -1.525287,-1.211309 -1.211016,-0.375177 -3.23372,-1.218232 -4.494901,-1.873454 -1.261181,-0.655223 -3.051754,-1.354595 -3.979048,-1.554161 -0.927297,-0.199566 -2.117922,-0.718556 -2.645833,-1.15331 -1.206031,-0.993209 -2.110405,-1.332118 -2.382016,-0.892645 -0.115524,0.186924 0.07783,0.441387 0.429677,0.565474 0.351846,0.124086 1.036595,0.590089 1.521664,1.035561 0.48507,0.445472 1.64785,0.981151 2.583953,1.190399 1.539307,0.34408 5.177159,1.944055 5.177159,2.27698 0,0.388471 -6.453954,-1.352985 -8.414657,-2.270508 -2.270517,-1.062504 -3.325192,-1.118684 -1.991734,-0.106095 1.321368,1.003404 3.874992,1.932245 7.584168,2.75862 2.037292,0.453893 4.151062,0.996701 4.697272,1.206242 1.292112,0.495691 1.414166,0.481909 1.178189,-0.133032 z m 35.722923,-0.324419 c -0.0808,-0.07308 -2.13137,-0.215736 -4.55672,-0.317007 -2.9947,-0.125045 -3.67391,-0.09564 -2.11666,0.09164 2.45205,0.294895 6.91709,0.445682 6.67338,0.225363 z M 92.676292,78.604077 c -0.930046,-0.826731 -2.337099,-1.633903 -4.327359,-2.687289 -1.990259,-1.053386 -4.252447,-2.116441 -5.027083,-2.362345 -0.774637,-0.245904 -1.919926,-0.739191 -2.545091,-1.096194 -0.625161,-0.357002 -1.225532,-0.505294 -1.334156,-0.329536 -0.277135,0.448415 1.098282,1.278103 3.473471,2.095288 1.112785,0.382854 2.475117,1.017861 3.027408,1.411127 0.552292,0.393265 1.775355,1.045598 2.717921,1.449628 2.038526,0.873815 4.111127,2.115496 3.893844,2.332778 -0.266407,0.266406 -5.774401,-1.225881 -7.183519,-1.946238 -0.737901,-0.377224 -2.576526,-1.416624 -4.08583,-2.309778 -3.031747,-1.794084 -3.077887,-1.81184 -3.073735,-1.182944 0.0059,0.88929 8.089939,5.011904 11.16825,5.695444 1.39046,0.308752 2.938272,0.717311 3.439583,0.907911 0.714189,0.271533 1.065033,-0.146324 1.065033,-0.34206 0,-0.195736 -0.615018,-1.108027 -1.208737,-1.635792 z"
         id="path4884"
         inkscape:connector-curvature="0" />
    </g>
  </g>
</svg>
