<?xml version="1.0" encoding="UTF-8"?>
<!DOCTYPE svg PUBLIC "-//W3C//DTD SVG 1.1//EN" "http://www.w3.org/Graphics/SVG/1.1/DTD/svg11.dtd">
<!-- Creator: CorelDRAW 2021 (64-Bit) -->
<svg xmlns="http://www.w3.org/2000/svg" xml:space="preserve" width="512px" height="511px" version="1.1" shape-rendering="geometricPrecision" text-rendering="geometricPrecision" image-rendering="optimizeQuality" fill-rule="evenodd" clip-rule="evenodd"
viewBox="0 0 513.89 512.41"
 xmlns:xlink="http://www.w3.org/1999/xlink"
 xmlns:xodm="http://www.corel.com/coreldraw/odm/2003">
 <g id="Layer_x0020_1">
  <metadata id="CorelCorpID_0Corel-Layer"/>
  <path fill="black" fill-rule="nonzero" d="M115.82 496.61c16.08,-21.9 23.85,-41.68 27.08,-62.84 2.24,-14.62 2.4,-30.2 1.65,-47.69l8.78 0.45 0 -0.05c5.71,0.41 11.56,0.59 17.29,0.88l0.53 0.02c0.7,18.07 0.42,34.48 -2.02,50.43 -3.88,25.36 -13.04,48.86 -31.93,74.59l-21.38 -15.79zm-46.9 -123.72l59.4 59.4 -5.01 23.84 -76.66 -76.66c-10.51,4.1 -20.72,9.65 -30.56,17.11l-16.09 -21.08c49.36,-37.43 102.43,-34.69 155.59,-31.95 6,0.31 12,0.62 16.82,0.83 21.05,0.9 41.94,1.07 61.99,-2.26l-52.97 -52.97 5 -23.85 71.12 71.11c14.12,-4.75 27.91,-11.99 41.25,-22.85l-99.68 -99.67c-17.99,19.58 -26.37,41.02 -29.83,63.81 -2.41,15.85 -2.49,32.61 -1.73,49.96l-10.21 -0.52c-0.58,-0.06 -1.16,-0.09 -1.76,-0.09 -4.88,-0.25 -9.75,-0.5 -14.63,-0.72 -0.72,-17.93 -0.51,-35.48 2.1,-52.67 4.3,-28.35 15.02,-55.1 38.41,-79.69 24.96,-26.25 51.67,-39.99 79.32,-46.87 21.97,-5.47 44.11,-6.51 66.29,-6.09 0.31,5.24 0.67,10.62 1.06,16.17 0.25,3.49 0.49,6.96 0.72,10.42 -16.87,-0.4 -33.55,0.02 -49.68,2.74l54.11 54.11 -5.01 23.84 -72.21 -72.21c-14.44,4.9 -28.55,12.41 -42.17,23.74l99.82 99.82c18.71,-19.89 27.35,-41.71 30.88,-64.93 3.72,-24.46 1.9,-51.11 -0.04,-78.72 -2.19,-31.17 -3.56,-56.83 0.2,-81.4 3.88,-25.35 13.04,-48.86 31.93,-74.59l21.37 15.8c-16.07,21.9 -23.84,41.68 -27.08,62.83 -3.35,21.93 -2.04,46.04 0.02,75.45 2.05,29.19 3.97,57.37 -0.17,84.67 -4.31,28.35 -15.02,55.09 -38.41,79.69 -24.96,26.25 -51.67,39.99 -79.32,46.87 -27.09,6.74 -54.43,6.76 -81.79,5.59 -6.48,-0.28 -11.8,-0.55 -17.11,-0.83 -28.93,-1.49 -57.83,-2.98 -85.28,2.82zm373.73 -232.9l-57.36 -57.36 5.01 -23.84 74.92 74.92c11.21,-4.17 22.11,-9.95 32.58,-17.89l16.09 21.09c-39.99,30.31 -82.39,34.28 -125.31,33.23 -0.36,-5.72 -0.76,-11.46 -1.16,-17.25 -0.23,-3.19 -0.44,-6.31 -0.64,-9.38 18.96,0.52 37.72,0.04 55.87,-3.52z"/>
 </g>
</svg>
