<svg id="レイヤー_1" data-name="レイヤー 1" xmlns="http://www.w3.org/2000/svg" viewBox="0 0 48 48"><defs><style>.cls-1{fill:#f8f09b;}.cls-2{fill:#2b2727;}</style></defs><title>oryza
_sativa</title><path class="cls-1" d="M26.85,40.5c.75-10.64,5.39-16.75,12.35-21.17C31.46,20.66,25.39,28,23.48,35.57Z"/><path class="cls-2" d="M26.85,41.5a1,1,0,0,1-.83-.44l-3.36-4.93a1,1,0,0,1-.15-.8c2.19-8.7,9-15.68,16.52-17a1,1,0,0,1,.71,1.83C32.17,25,28.51,31.27,27.85,40.57a1,1,0,0,1-.74.9A1.15,1.15,0,0,1,26.85,41.5Zm-2.28-6.12,1.57,2.31A25.14,25.14,0,0,1,33,23.07,22.38,22.38,0,0,0,24.57,35.38Z"/><path class="cls-1" d="M26.77,40.5c0-5.44-5.43-11.2-11.55-12.34,3.69,2.27,7.52,6,8,12.34Z"/><path class="cls-2" d="M26.77,41.5H23.19a1,1,0,0,1-1-.93c-.35-4.89-2.8-8.67-7.49-11.55a1,1,0,0,1,.71-1.84C22,28.4,27.77,34.62,27.77,40.5A1,1,0,0,1,26.77,41.5Zm-2.67-2h1.61a12.36,12.36,0,0,0-4.57-7.41A15.4,15.4,0,0,1,24.1,39.5Z"/><path class="cls-2" d="M24.29,33.86h-.14a1,1,0,0,1-.85-1.13c1.53-10.87-1-19.61-6.39-21.75a1,1,0,1,1,.74-1.85C24,11.64,27,21,25.28,33A1,1,0,0,1,24.29,33.86Z"/><path class="cls-2" d="M24.57,26.24h0a1,1,0,0,1-1-1,10.92,10.92,0,0,0-4.52-8.55A1,1,0,1,1,20.16,15a12.92,12.92,0,0,1,5.41,10.24A1,1,0,0,1,24.57,26.24Z"/><path class="cls-2" d="M24.51,28.27a1,1,0,0,1-.92-.6A11.72,11.72,0,0,0,19.77,23a1,1,0,0,1-.24-1.4,1,1,0,0,1,1.39-.24,13.75,13.75,0,0,1,4.5,5.54,1,1,0,0,1-.51,1.32A1,1,0,0,1,24.51,28.27Z"/><path class="cls-2" d="M13.57,9.11v0h0a1.18,1.18,0,0,1,1.12-1.25h0A1.18,1.18,0,0,1,15.94,9h0s0,0,0,0h0v.09h0a1.18,1.18,0,0,1-1.19,1.17h0A1.18,1.18,0,0,1,13.57,9.11Z"/><path class="cls-2" d="M15.9,14.82v0h0A1.17,1.17,0,0,1,17,13.56h0a1.18,1.18,0,0,1,1.25,1.1h0v0h0v.09h0A1.18,1.18,0,0,1,17.09,16h0A1.18,1.18,0,0,1,15.9,14.82Z"/><path class="cls-2" d="M16.67,21.24v0h0A1.18,1.18,0,0,1,17.8,20h0a1.18,1.18,0,0,1,1.25,1.1h0s0,0,0,0h0v.09h0a1.18,1.18,0,0,1-1.19,1.17h0A1.18,1.18,0,0,1,16.67,21.24Z"/><path class="cls-2" d="M13.84,21.72v0h0A1.18,1.18,0,0,1,15,20.45h0a1.18,1.18,0,0,1,1.25,1.11h0s0,0,0,0h0v.09h0A1.18,1.18,0,0,1,15,22.84h0A1.18,1.18,0,0,1,13.84,21.72Z"/><path class="cls-2" d="M13.06,14.5v0h0a1.18,1.18,0,0,1,1.13-1.24h0a1.18,1.18,0,0,1,1.25,1.1h0v0h0v.09h0a1.18,1.18,0,0,1-1.19,1.18h0A1.19,1.19,0,0,1,13.06,14.5Z"/><path class="cls-2" d="M10.43,15.65v0h0a1.19,1.19,0,0,1,1.13-1.25h0a1.19,1.19,0,0,1,1.25,1.11h0v0h0v.09h0a1.19,1.19,0,0,1-1.19,1.17h0A1.19,1.19,0,0,1,10.43,15.65Z"/><path class="cls-2" d="M10.67,8.77v0h0A1.19,1.19,0,0,1,11.79,7.5h0a1.19,1.19,0,0,1,1.26,1.11h0s0,0,0,0h0v.09h0a1.19,1.19,0,0,1-1.2,1.17h0A1.19,1.19,0,0,1,10.67,8.77Z"/><path class="cls-2" d="M8,9.76v0H8A1.17,1.17,0,0,1,9.1,8.5h0a1.19,1.19,0,0,1,1.26,1.1h0v0h0v.09h0a1.18,1.18,0,0,1-1.2,1.17h0A1.19,1.19,0,0,1,8,9.76Z"/><circle class="cls-1" cx="35.95" cy="7.53" r="1.5"/><circle class="cls-1" cx="29.74" cy="10.36" r="1"/><circle class="cls-1" cx="36.45" cy="14.61" r="0.5"/></svg>