<?xml version="1.0" encoding="UTF-8" standalone="no"?>
<!-- Created with Inkscape (http://www.inkscape.org/) -->

<svg
   width="128.8568mm"
   height="24.143715mm"
   viewBox="0 0 128.8568 24.143715"
   version="1.1"
   id="svg419"
   inkscape:export-filename="pantera.svg"
   inkscape:export-xdpi="96"
   inkscape:export-ydpi="96"
   xmlns:inkscape="http://www.inkscape.org/namespaces/inkscape"
   xmlns:sodipodi="http://sodipodi.sourceforge.net/DTD/sodipodi-0.dtd"
   xmlns="http://www.w3.org/2000/svg"
   xmlns:svg="http://www.w3.org/2000/svg">
  <sodipodi:namedview
     id="namedview421"
     pagecolor="#505050"
     bordercolor="#eeeeee"
     borderopacity="1"
     inkscape:showpageshadow="0"
     inkscape:pageopacity="0"
     inkscape:pagecheckerboard="0"
     inkscape:deskcolor="#505050"
     inkscape:document-units="mm"
     showgrid="false" />
  <defs
     id="defs416" />
  <g
     inkscape:label="Capa 1"
     inkscape:groupmode="layer"
     id="layer1"
     transform="translate(-29.942101,-79.449728)">
    <path
       fill="#000000"
       d="m 132.73042,82.099491 v 13.556977 c 0.46054,-0.37794 1.6184,-0.99007 3.47363,-1.83638 1.8552,-0.84627 3.06087,-1.33513 3.61699,-1.46662 1.59017,0.87095 3.07609,2.12395 4.45772,3.75897 1.38163,1.63508 2.40266,3.3687 3.06303,5.200982 l -0.66474,2.28002 c 0.85159,-0.89558 2.95011,-1.97193 6.29553,-3.22901 l -1.48589,-0.22186 1.38163,-0.653192 c -0.63433,0.0411 -1.29907,-0.11506 -1.99424,-0.46832 -0.69518,-0.35332 -1.06881,-0.78058 -1.12095,-1.28177 -0.0521,-0.50119 0.15204,-0.92431 0.61262,-1.26943 0.46055,-0.34507 0.97319,-0.51349 1.53804,-0.50529 0.59089,0.009 1.13182,0.16227 1.62276,0.46218 0.49093,0.2999 0.81249,0.67786 0.96452,1.13384 0.15206,0.45604 0.0631,0.94693 -0.26718,1.47276 0.84284,0 1.51412,-0.1787 2.01378,-0.53611 0.49966,-0.35737 0.97542,-0.90583 1.42725,-1.64529 l 0.37798,-1.14618 0.756,-1.28177 -0.88633,-1.08453 c -0.59092,-1.21602 -1.37727,-2.58408 -2.35921,-4.104102 -0.98193,-1.519974 -1.68577,-2.431994 -2.11153,-2.735996 -0.39971,-0.369756 -0.69299,-0.638845 -0.87982,-0.807252 -0.18684,-0.168471 -0.47791,-0.417019 -0.87328,-0.745659 -0.3954,-0.328632 -0.73429,-0.583379 -1.01669,-0.764137 -0.28238,-0.180749 -0.62128,-0.371802 -1.01667,-0.573084 -0.39539,-0.20129 -0.7842,-0.359458 -1.16655,-0.474466 -0.31283,-0.575164 -0.41712,-1.803504 -0.31283,-3.685044 -0.84288,0 -1.60321,0.0801 -2.28099,0.240325 -0.67778,0.160224 -1.24263,0.386175 -1.69444,0.677852 -0.45185,0.291678 -0.81681,0.577195 -1.09491,0.856554 -0.27806,0.279352 -0.53875,0.595681 -0.78203,0.948991 -1.99861,-0.1479 -5.19631,-0.172551 -9.5932,-0.07392 z m 13.94663,-1.306392 c -0.0609,0.542281 -0.0217,1.372127 0.1173,2.489557 -0.93844,-0.213626 -1.87692,-0.373851 -2.81538,-0.48066 0.18247,-0.829854 1.08183,-1.499485 2.69808,-2.008897 z m 2.281,7.246828 c 0.58217,0.04103 1.0514,0.09856 1.4077,0.17251 0.35628,0.07392 0.71251,0.219824 1.0688,0.43755 0.35629,0.217731 0.65171,0.435451 0.88632,0.653182 0.23462,0.21772 0.60825,0.585419 1.12096,1.103069 l -2.30707,0.30809 z"
       id="path132"
       style="fill:#d63384;stroke-width:0.0559993" />
    <text
       xml:space="preserve"
       style="font-size:25.4px;line-height:1.25;font-family:'Arial Black';-inkscape-font-specification:'Arial Black, ';fill:#d63384;stroke-width:0.264583"
       x="28.113302"
       y="96.43782"
       id="text353"><tspan
         sodipodi:role="line"
         id="tspan351"
         style="font-style:normal;font-variant:normal;font-weight:bold;font-stretch:normal;font-size:25.4px;font-family:Montserrat;-inkscape-font-specification:'Montserrat Bold';fill:#d63384;stroke-width:0.264583"
         x="28.113302"
         y="96.43782">pantera</tspan></text>
  </g>
</svg>
