<?xml version="1.0" encoding="utf-8"?><!-- Uploaded to: SVG Repo, www.svgrepo.com, Generator: SVG Repo Mixer Tools -->
<svg width="800px" height="800px" viewBox="-32 0 512 512" version="1.1" xmlns="http://www.w3.org/2000/svg"><path fill="#000000" d="M0 81.1679V332.725C7.91467 325.712 27.8133 314.354 59.696 298.65C91.5787 282.947 112.299 273.876 121.856 271.436C149.184 287.597 174.72 310.847 198.464 341.186C222.208 371.526 239.755 403.694 251.104 437.693L239.68 480C254.315 463.382 290.379 443.41 347.872 420.084L322.336 415.967L346.08 403.847C335.179 404.609 323.755 401.712 311.808 395.157C299.861 388.601 293.44 380.673 292.544 371.373C291.648 362.073 295.157 354.222 303.072 347.818C310.987 341.415 319.797 338.29 329.504 338.442C339.659 338.595 348.955 341.453 357.392 347.018C365.829 352.583 371.355 359.596 373.968 368.057C376.581 376.519 375.051 385.628 369.376 395.385C383.861 395.385 395.397 392.069 403.984 385.437C412.571 378.806 420.747 368.629 428.512 354.908L435.008 333.64L448 309.856L432.768 289.732C422.613 267.168 409.099 241.783 392.224 213.578C375.349 185.374 363.253 168.451 355.936 162.81C349.067 155.949 344.027 150.956 340.816 147.831C337.605 144.705 332.603 140.093 325.808 133.995C319.013 127.897 313.189 123.17 308.336 119.816C303.483 116.462 297.659 112.917 290.864 109.182C284.069 105.447 277.387 102.512 270.816 100.378C265.44 89.7056 263.648 66.9131 265.44 32C250.955 32 237.888 33.4865 226.24 36.4594C214.592 39.4324 204.885 43.625 197.12 49.0373C189.355 54.4495 183.083 59.7475 178.304 64.9311C173.525 70.1147 169.045 75.9843 164.864 82.5401C130.517 79.7958 75.5627 79.3384 0 81.1679ZM239.68 56.927C238.635 66.9893 239.307 82.3876 241.696 103.122C225.568 99.1581 209.44 96.1851 193.312 94.2032C196.448 78.8048 211.904 66.3794 239.68 56.927ZM278.88 191.396C288.885 192.158 296.949 193.225 303.072 194.597C309.195 195.969 315.317 198.676 321.44 202.716C327.563 206.756 332.64 210.796 336.672 214.836C340.704 218.876 347.125 225.699 355.936 235.304L316.288 241.021L278.88 191.396Z"></path></svg>